<svg xmlns="http://www.w3.org/2000/svg" xmlns:xlink="http://www.w3.org/1999/xlink" width="1080" zoomAndPan="magnify" viewBox="0 0 810 809.999993" height="1080" preserveAspectRatio="xMidYMid meet" version="1.0"><rect x="-81" width="972" fill="#ffffff" y="-80.999999" height="971.999992" fill-opacity="1"/><rect x="-81" width="972" fill="#ffffff" y="-80.999999" height="971.999992" fill-opacity="1"/><path fill="#16a34a" d="M 689.207031 581.679688 C 763.828125 635.34375 810 709.964844 810 792.789062 C 810 802.304688 802.304688 810 792.890625 810 L 17.109375 810 C 7.695312 810 0 802.304688 0 792.789062 C 0 709.964844 46.171875 635.34375 120.792969 581.679688 C 193.792969 529.234375 294.332031 496.734375 405 496.734375 C 515.667969 496.734375 616.207031 529.234375 689.207031 581.679688 Z M 405 0 C 530.753906 0 632.710938 102.769531 632.710938 229.535156 C 632.710938 356.398438 530.753906 459.167969 405 459.167969 C 279.246094 459.167969 177.289062 356.398438 177.289062 229.535156 C 177.289062 102.769531 279.246094 0 405 0 Z M 405 0 " fill-opacity="1" fill-rule="evenodd"/></svg>