<svg xmlns="http://www.w3.org/2000/svg" xmlns:xlink="http://www.w3.org/1999/xlink" width="1080" zoomAndPan="magnify" viewBox="0 0 810 809.999993" height="1080" preserveAspectRatio="xMidYMid meet" version="1.0"><path fill="#16a34a" d="M 404.933594 -0.0351562 C 181.273438 -0.0351562 -0.0351562 181.273438 -0.0351562 404.933594 C -0.0351562 628.59375 181.273438 809.898438 404.933594 809.898438 C 628.59375 809.898438 809.898438 628.59375 809.898438 404.933594 C 809.898438 181.273438 628.59375 -0.0351562 404.933594 -0.0351562 Z M 404.933594 113.363281 C 485.460938 113.363281 550.726562 178.628906 550.726562 259.15625 C 550.726562 339.683594 485.460938 404.949219 404.933594 404.949219 C 324.40625 404.949219 259.140625 339.667969 259.140625 259.15625 C 259.140625 178.644531 324.40625 113.363281 404.933594 113.363281 Z M 404.933594 712.726562 C 301.425781 712.726562 210.082031 661.476562 154.285156 583.140625 C 210.082031 504.800781 301.425781 453.554688 404.933594 453.554688 C 508.441406 453.554688 599.785156 504.800781 655.582031 583.140625 C 599.785156 661.476562 508.441406 712.726562 404.933594 712.726562 Z M 404.933594 712.726562 " fill-opacity="1" fill-rule="nonzero"/></svg>